<svg width="16" height="16" viewBox="0 0 16 16" fill="none" xmlns="http://www.w3.org/2000/svg">
<path d="M8 8.75214C10.4171 8.75214 12.3761 6.79316 12.3761 4.37607C12.3761 1.95897 10.4171 0 8 0C5.58291 0 3.62393 1.95897 3.62393 4.37607C3.62393 6.79316 5.58291 8.75214 8 8.75214ZM11.2752 9.72992L9.64103 15.5556L8.54701 10.906L9.64103 9.7094H6.35897L7.45299 10.906L6.35897 15.5556L4.72479 9.72992C2.28718 9.84615 0 11.1214 0 13.5863V15.0085C0 15.9145 1.07692 16 1.98291 16H4.99145H8H11.0085H14.0171C14.9231 16 16 15.9145 16 15.0085V13.5863C16 11.1214 13.7128 9.84615 11.2752 9.72992Z" fill="black"/>
</svg>
