<svg width="144" height="144" viewBox="0 0 144 144" fill="none" xmlns="http://www.w3.org/2000/svg">
<path d="M72 78.7692C93.7538 78.7692 111.385 61.1385 111.385 39.3846C111.385 17.6308 93.7538 0 72 0C50.2462 0 32.6154 17.6308 32.6154 39.3846C32.6154 61.1385 50.2462 78.7692 72 78.7692ZM101.477 87.5692L86.7692 140L76.9231 98.1538L86.7692 87.3846H57.2308L67.0769 98.1538L57.2308 140L42.5231 87.5692C20.5846 88.6154 0 100.092 0 122.277V135.077C0 143.231 9.69231 144 17.8462 144H44.9231H72H99.0769H126.154C134.308 144 144 143.231 144 135.077V122.277C144 100.092 123.415 88.6154 101.477 87.5692Z" fill="black"/>
</svg>
